<?xml version="1.0" encoding="utf-8"?>
<svg viewBox="0 0 576 512" xmlns="http://www.w3.org/2000/svg">
  <defs>
    <radialGradient gradientUnits="userSpaceOnUse" cx="288" cy="256" r="288" id="gradient-0" gradientTransform="matrix(2.878645, -0.037825, 0.013139, 0.999914, -544.413166, 10.915714)" spreadMethod="reflect">
      <stop offset="0" style="stop-color: rgb(100% 87.843% 11.373%)"/>
      <stop offset="1" style="stop-color: rgb(253, 176, 0);"/>
    </radialGradient>
  </defs>
  <path d="M309 106c11.4-7 19-19.7 19-34c0-22.1-17.9-40-40-40s-40 17.9-40 40c0 14.4 7.6 27 19 34L209.7 220.6c-9.1 18.2-32.7 23.4-48.6 10.7L72 160c5-6.7 8-15 8-24c0-22.1-17.9-40-40-40S0 113.9 0 136s17.9 40 40 40c.2 0 .5 0 .7 0L86.4 427.4c5.5 30.4 32 52.6 63 52.6H426.6c30.9 0 57.4-22.1 63-52.6L535.3 176c.2 0 .5 0 .7 0c22.1 0 40-17.9 40-40s-17.9-40-40-40s-40 17.9-40 40c0 9 3 17.3 8 24l-89.1 71.3c-15.9 12.7-39.5 7.5-48.6-10.7L309 106z" style="stroke: rgb(0, 0, 0); stroke-width: 8px; fill-rule: nonzero; fill: url('#gradient-0');"/>
</svg>